<?xml version="1.0" encoding="UTF-8"?>
<svg id="Layer_1" data-name="Layer 1" xmlns="http://www.w3.org/2000/svg" viewBox="0 0 1333.5 448.5">
  <defs>
    <style>
      .cls-1 {
        fill: #024639;
      }
    </style>
  </defs>
  <path class="cls-1" d="M167.89,114.06c-2.41.41-3.82,2.6-6.43,2.96-3.16.44-5.44-.67-7.74-2.66-2.66-2.31-12.44-12.3-14.31-14.93-2.92-4.1-3.11-8.33,1.11-11.63,8.44-6.61,14.57,8.09,20.86,11.17l14-10.03c-17.52-8.55-17.32-34.73.58-42.92,27.43-12.56,48.07,25.41,23.43,42.18,1.54,1.67,3.92,1.95,5.62,3.37,4.32,3.6,5.16,16.38,7.48,21.75,1.28-1.23,1.36-3.4,1.66-5.09,1.87-10.35,2.53-27.13,5.66-36.34.9-2.65,2.64-3.54,4.24-5.55-7.68-8.39-11.15-18.98-5.81-29.77,9.4-19,38.04-16.83,44.3,3.41,3.32,10.74-.31,18.24-6.96,26.44,2.22,1.52,4.03,3.11,4.62,5.89l6.63,41.74,5.69-19.42c1.63-3.23,5.14-5.16,8.54-6.09-1.01-1.6-3.67-2.66-4.98-4.01-18.21-18.83,3-49.81,27.75-38.64,14.5,6.55,18.02,27.41,6.95,38.64-.99,1-6.62,4.2-5.73,5.5l13.22,8.95c1.94.35,10.6-11.69,14.29-12.53,7.14-1.62,12.55,5.98,8.46,12.22-1.03,1.57-14.79,15.84-16.25,16.74-5.42,3.36-8.46,1.26-12.99-2.12v24c72.73,37.17,101.55,130.01,65.21,203.25h860.89c.51,0,5.28,2.95,5.97,3.78,6.12,7.38,1.18,18.2-8.18,18.76l-871.09-.08c-3.44.45-5.88,5.73-8.2,8.3-67.16,74.62-183.63,72.11-241.92-11.47-52.51-75.3-27.5-180.45,53.39-222.54v-23.25ZM228.34,51.17c-2.35.77-1.02,4.1.24,5.53,4.67,5.29,23.55,4.67,24.01-3.08.29-4.95-9.46-1.77-12.41-1.79-3.31-.02-8.49-1.76-11.84-.67ZM278.56,66.17c-3.18,1.82.13,5.06.25,7.05.17,2.87-2.87,6.38,2.61,7.13,9.09,1.24,18.77-3.1,21.21-12.44-3.53-3.8-9.31-1.03-13.68-1.03-3.35,0-6.84-1.58-10.39-.71ZM205.36,67.56c-3.12.9-4.34,2.21-7.86,2.3-6.54.17-19.22-7.46-16.7,4.66,3.28,15.78,28.67,9.95,24.56-6.95ZM234.6,139.56c-67.69.83-125.76,59.25-127.43,126.75h34.86c1.76,0,4.16,3.66,4.16,5.62s-2.4,5.62-4.16,5.62h-34.86c1.96,62.64,49.84,116.05,111.53,125.78,4.69.74,9.45.75,14.1,1.68.62.17,1.8-.77,1.8-1.09v-34.5c0-4.6,10.49-3.76,10.49-.75v36.38c68.22-2.57,125.23-59.05,127.43-127.5h-34.86c-1.76,0-4.16-3.66-4.16-5.62s2.4-5.62,4.16-5.62h34.86c-2.03-67.57-59.59-125.81-127.43-126.75v35.62c0,1.8-5.36,3.22-7.48,2.24-.39-.18-3.01-2.77-3.01-2.99v-34.87Z"/>
  <path class="cls-1" d="M784.04,288.06l17.24-66.75h35.23l-8.62,101.25h-25.86c2.4-25.64,5.69-51.22,10.49-76.5-1.09-.18-1.04,1.32-1.26,2.09-6.09,21.12-11.08,42.66-16.72,63.9h-26.98c-.94-20.56.09-41.34-.75-61.88-.04-.91.57-2.79-.74-2.61-1,23.23-4.21,46.31-7.6,69.27-.28,1.88-.46,4.46-1.78,5.72h-25.49l20.24-101.25h31.48l1.12,1.12v65.62Z"/>
  <path class="cls-1" d="M1155.08,322.56l13.82-100.55,33.3-.59,9.48,71.15c-.35-23.98,2.64-47.64,6.37-71.26h23.99l-14.32,101.17-33.31-.64-9.71-73.54c-.21,7.12.64,14.24.41,21.41-.12,3.57-.49,8.33-.79,11.96-1.12,13.64-3.96,27.25-5.24,40.88h-23.99Z"/>
  <path class="cls-1" d="M726.06,232.07c12.15,12.14,9.07,41.38,4.03,56.37-5.66,16.82-16.74,28.68-34.49,32.24-14.89,2.99-31.3,1.42-46.48,1.86l14.32-101.16c18.37.6,48.4-3.53,62.62,10.68ZM688.09,241.55l-8.15,59.57c.61,2.57,8.89.68,10.92-.17,10.18-4.24,13.36-21.45,14.46-31.28,1.6-14.33,2.58-30.8-17.24-28.12Z"/>
  <path class="cls-1" d="M1110.69,219.26c40.72-4.58,48.48,26.15,41.79,59.82-5.84,29.42-23.64,48.95-55.4,45.63-35.11-3.66-32.26-50.02-22.78-74.36,6.04-15.51,19.14-29.15,36.39-31.09ZM1112.89,239.46c-6.7,1.5-11.42,14.89-12.91,20.83-2.15,8.61-5.56,33.07-1.43,40.45,3.16,5.64,11.55,4.72,15.72.84,9.29-8.65,12.65-38.52,11.61-50.69-.69-8.15-3.98-13.46-12.99-11.44Z"/>
  <path class="cls-1" d="M514.77,219.26c38.34-4.36,47.26,21.83,42.79,54.81-3.11,22.95-16.69,48.44-42.26,50.72-36.26,3.24-46.23-20.62-42.25-52.77,2.88-23.27,15.76-49.81,41.72-52.76ZM512.95,241.82c-.54.47-2.67,3.25-3.14,3.99-6.91,10.86-10.78,39.92-8.2,52.21,1.65,7.84,10.99,8.31,16.34,3.93,10.15-8.29,13.59-41.64,11.91-53.95-1.22-8.98-10.39-11.88-16.92-6.18Z"/>
  <path class="cls-1" d="M605.47,219.26c37.04-4.18,46.9,21.04,42.8,53.33-3.97,31.3-22.24,55.69-56.41,52.12-47.34-4.94-34.08-100.07,13.61-105.45ZM607.68,239.48c-11.71,2.43-15.82,32.44-16.32,42.17-.3,5.94-1.35,21.42,6.44,22.87,10.02,1.86,14.31-5.94,17.4-14.01,3.74-9.77,7.46-35.62,4.31-45.21-1.81-5.53-6.36-6.95-11.84-5.81Z"/>
  <path class="cls-1" d="M914.3,219.26c15.1-1.7,30.08,1.52,40.63,12.92l-13.85,14.61c-5.82-9.48-33.41-11.94-28.52,3.8,1.54,4.95,18.71,10.83,23.88,14.35,13.79,9.39,15.46,25.89,8.29,40.26-12.47,25.01-56.39,26.27-73.01,4.97,0-1.01,13.06-14.29,14.04-14.55,1.42-.37,7.25,5.05,9.45,6.06,6.86,3.18,20.96,4.97,23.93-4.09,4.51-13.76-13.52-16.87-21.92-21.91-27.44-16.45-12.18-53.14,17.09-56.43Z"/>
  <path class="cls-1" d="M988.93,241.81c-10.71,11.25,15.08,18.54,21.42,22.69,22.49,14.72,13.82,47.51-8.94,56.92-17.64,7.3-43.01,4.16-55.4-11.34l14.67-14.47c7,7.01,27.03,14.14,32.66,2.73,6.79-13.77-16.04-18.64-24.08-24.23-18.72-13.02-13.2-40.65,5.66-50.45,15.96-8.29,43.1-6.44,54.18,9.16l-13.21,13.15c-1.57.41-5.11-3.51-7.21-4.55-4.88-2.42-15.71-3.84-19.75.39Z"/>
  <path class="cls-1" d="M480.46,221.31l-5.97,19.91-26.26.35-3.01,23.24h23.24l-2.25,19.5h-23.99s-5.25,38.25-5.25,38.25c-.29.3-.96-.76-1.12-.76h-26.61l14.24-100.5h56.97Z"/>
  <polygon class="cls-1" points="878.49 221.31 863.87 322.56 837.63 322.56 850.75 221.31 878.49 221.31"/>
  <polygon class="cls-1" points="1068.13 221.31 1053.89 322.56 1026.15 322.56 1040.77 221.31 1068.13 221.31"/>
  <path class="cls-1" d="M326.05,189.06l-51.67,53.52,5.57,5.71,56.12-55.43c1.56,1.74,5.83,4.07,4.62,6.68l-54.31,54.49,5.18,5.92,1.69-.43,50.42-50.96c1.52-.03,1.17,5.22,1.11,6.35-1.22,25.1-20.08,61.2-49.05,60.39-6.08-.17-11.82-2.81-17.62-4.18l-23.25,23.29,53.08,53.38c7.1,11.46-7.33,22.77-17.13,14.14l-51.43-51.34-52.04,51.27c-10.18,7.23-23.14-4.58-16.01-15.27l52.03-52.18-22.25-22.01c-31.45,12.3-51.44-7.22-61.5-35.18-12.82-35.63.19-55.58,38.61-43.88,28.18,8.58,53.31,30.42,38.52,62.21l22.64,22.68,23.37-23.18c-11.94-27.29,2.6-47.07,27.07-58.41,5.04-2.33,18.82-7.61,23.88-7.61h12.37Z"/>
</svg>